<?xml version="1.0" encoding="UTF-8"?><svg id="a" xmlns="http://www.w3.org/2000/svg" viewBox="0 0 1161.35 512.35"><defs><style>.j{fill:#ec3e73;}.k{fill:#7a9a01;}</style></defs><g id="b"><g><path id="c" class="k" d="M538.35,389.47c-1.56,0-2.74-.41-3.54-1.23-.8-.82-1.2-1.99-1.2-3.51v-32.94c0-1.52,.4-2.69,1.2-3.51,.8-.82,1.96-1.23,3.48-1.23,3.08,0,4.62,1.58,4.62,4.74v29.82h16.08c2.68,0,4.02,1.3,4.02,3.9s-1.34,3.96-4.02,3.96h-20.64Zm33.12,.54c-1.68,0-2.88-.56-3.6-1.68s-.7-2.5,.06-4.14l15.36-33.66c.64-1.36,1.4-2.35,2.28-2.97,.88-.62,1.9-.93,3.06-.93s2.18,.31,3.06,.93c.88,.62,1.62,1.61,2.22,2.97l15.48,33.66c.76,1.68,.79,3.07,.09,4.17-.7,1.1-1.83,1.65-3.39,1.65-1.36,0-2.41-.32-3.15-.96-.74-.64-1.39-1.64-1.95-3l-2.52-5.76h-19.74l-2.46,5.76c-.6,1.4-1.24,2.41-1.92,3.03-.68,.62-1.64,.93-2.88,.93Zm17.04-32.94l-6.66,15.96h13.56l-6.78-15.96h-.12Zm34.26,32.94c-2.88,0-4.32-1.5-4.32-4.5v-34.2c0-1.52,.37-2.68,1.11-3.48,.74-.8,1.73-1.2,2.97-1.2,1.04,0,1.86,.21,2.46,.63s1.28,1.11,2.04,2.07l19.44,24.78v-23.04c0-2.96,1.44-4.44,4.32-4.44s4.32,1.48,4.32,4.44v34.62c0,1.32-.34,2.37-1.02,3.15-.68,.78-1.6,1.17-2.76,1.17s-2.01-.22-2.67-.66-1.37-1.14-2.13-2.1l-19.44-24.78v23.04c0,3-1.44,4.5-4.32,4.5Zm64.8,.12c-4.76,0-8.79-.9-12.09-2.7-3.3-1.8-5.81-4.32-7.53-7.56-1.72-3.24-2.58-7.04-2.58-11.4s.89-8.36,2.67-11.64c1.78-3.28,4.35-5.82,7.71-7.62,3.36-1.8,7.4-2.7,12.12-2.7,2.16,0,4.32,.24,6.48,.72,2.16,.48,4.24,1.28,6.24,2.4,1.08,.6,1.73,1.4,1.95,2.4,.22,1,.11,1.97-.33,2.91-.44,.94-1.11,1.62-2.01,2.04-.9,.42-1.97,.33-3.21-.27-2.68-1.4-5.7-2.1-9.06-2.1-4.28,0-7.49,1.19-9.63,3.57-2.14,2.38-3.21,5.81-3.21,10.29s1.09,7.94,3.27,10.26c2.18,2.32,5.41,3.48,9.69,3.48,2.28,0,4.68-.36,7.2-1.08v-8.28h-5.4c-2.48,0-3.72-1.12-3.72-3.36s1.24-3.36,3.72-3.36h9.42c2.44,0,3.66,1.24,3.66,3.72v13.92c0,1.04-.21,1.92-.63,2.64-.42,.72-1.09,1.24-2.01,1.56-1.8,.64-3.82,1.16-6.06,1.56-2.24,.4-4.46,.6-6.66,.6Zm44.7,0c-6,0-10.57-1.54-13.71-4.62-3.14-3.08-4.71-7.66-4.71-13.74v-20.4c0-1.52,.4-2.69,1.2-3.51,.8-.82,1.96-1.23,3.48-1.23,3.08,0,4.62,1.58,4.62,4.74v20.46c0,3.44,.78,6.03,2.34,7.77,1.56,1.74,3.82,2.61,6.78,2.61,6.04,0,9.06-3.46,9.06-10.38v-20.46c0-3.16,1.54-4.74,4.62-4.74,1.48,0,2.61,.41,3.39,1.23,.78,.82,1.17,1.99,1.17,3.51v20.4c0,6.08-1.54,10.66-4.62,13.74-3.08,3.08-7.62,4.62-13.62,4.62Zm30.36-.12c-1.68,0-2.88-.56-3.6-1.68s-.7-2.5,.06-4.14l15.36-33.66c.64-1.36,1.4-2.35,2.28-2.97,.88-.62,1.9-.93,3.06-.93s2.18,.31,3.06,.93c.88,.62,1.62,1.61,2.22,2.97l15.48,33.66c.76,1.68,.79,3.07,.09,4.17-.7,1.1-1.83,1.65-3.39,1.65-1.36,0-2.41-.32-3.15-.96-.74-.64-1.39-1.64-1.95-3l-2.52-5.76h-19.74l-2.46,5.76c-.6,1.4-1.24,2.41-1.92,3.03-.68,.62-1.64,.93-2.88,.93Zm17.04-32.94l-6.66,15.96h13.56l-6.78-15.96h-.12Zm49.86,33.06c-4.76,0-8.79-.9-12.09-2.7-3.3-1.8-5.81-4.32-7.53-7.56-1.72-3.24-2.58-7.04-2.58-11.4s.89-8.36,2.67-11.64c1.78-3.28,4.35-5.82,7.71-7.62,3.36-1.8,7.4-2.7,12.12-2.7,2.16,0,4.32,.24,6.48,.72,2.16,.48,4.24,1.28,6.24,2.4,1.08,.6,1.73,1.4,1.95,2.4,.22,1,.11,1.97-.33,2.91-.44,.94-1.11,1.62-2.01,2.04-.9,.42-1.97,.33-3.21-.27-2.68-1.4-5.7-2.1-9.06-2.1-4.28,0-7.49,1.19-9.63,3.57-2.14,2.38-3.21,5.81-3.21,10.29s1.09,7.94,3.27,10.26c2.18,2.32,5.41,3.48,9.69,3.48,2.28,0,4.68-.36,7.2-1.08v-8.28h-5.4c-2.48,0-3.72-1.12-3.72-3.36s1.24-3.36,3.72-3.36h9.42c2.44,0,3.66,1.24,3.66,3.72v13.92c0,1.04-.21,1.92-.63,2.64-.42,.72-1.09,1.24-2.01,1.56-1.8,.64-3.82,1.16-6.06,1.56-2.24,.4-4.46,.6-6.66,.6Zm31.44-.66c-3.24,0-4.86-1.62-4.86-4.86v-32.58c0-3.24,1.62-4.86,4.86-4.86h20.94c2.44,0,3.66,1.2,3.66,3.6s-1.22,3.66-3.66,3.66h-16.92v9.9h15.54c2.48,0,3.72,1.22,3.72,3.66s-1.24,3.66-3.72,3.66h-15.54v10.56h16.92c2.44,0,3.66,1.2,3.66,3.6s-1.22,3.66-3.66,3.66h-20.94Zm74.7,.66c-4.56,0-8.46-.9-11.7-2.7-3.24-1.8-5.73-4.33-7.47-7.59-1.74-3.26-2.61-7.11-2.61-11.55s.87-8.23,2.61-11.49c1.74-3.26,4.23-5.79,7.47-7.59,3.24-1.8,7.14-2.7,11.7-2.7,2,0,4.03,.26,6.09,.78,2.06,.52,3.85,1.22,5.37,2.1,1.24,.72,2,1.62,2.28,2.7,.28,1.08,.19,2.1-.27,3.06-.46,.96-1.17,1.64-2.13,2.04-.96,.4-2.04,.26-3.24-.42-1.2-.72-2.46-1.24-3.78-1.56s-2.66-.48-4.02-.48c-4.04,0-7.09,1.17-9.15,3.51-2.06,2.34-3.09,5.69-3.09,10.05s1.03,7.72,3.09,10.08c2.06,2.36,5.11,3.54,9.15,3.54,1.28,0,2.59-.16,3.93-.48,1.34-.32,2.63-.82,3.87-1.5,1.28-.68,2.4-.83,3.36-.45,.96,.38,1.67,1.02,2.13,1.92,.46,.9,.57,1.88,.33,2.94-.24,1.06-.92,1.93-2.04,2.61-1.52,1-3.35,1.78-5.49,2.34s-4.27,.84-6.39,.84Zm28.38-.66c-3.24,0-4.86-1.62-4.86-4.86v-32.58c0-3.24,1.62-4.86,4.86-4.86h20.94c2.44,0,3.66,1.2,3.66,3.6s-1.22,3.66-3.66,3.66h-16.92v9.9h15.54c2.48,0,3.72,1.22,3.72,3.66s-1.24,3.66-3.72,3.66h-15.54v10.56h16.92c2.44,0,3.66,1.2,3.66,3.6s-1.22,3.66-3.66,3.66h-20.94Zm38.76,.54c-2.88,0-4.32-1.5-4.32-4.5v-34.2c0-1.52,.37-2.68,1.11-3.48,.74-.8,1.73-1.2,2.97-1.2,1.04,0,1.86,.21,2.46,.63,.6,.42,1.28,1.11,2.04,2.07l19.44,24.78v-23.04c0-2.96,1.44-4.44,4.32-4.44s4.32,1.48,4.32,4.44v34.62c0,1.32-.34,2.37-1.02,3.15-.68,.78-1.6,1.17-2.76,1.17s-2.01-.22-2.67-.66c-.66-.44-1.37-1.14-2.13-2.1l-19.44-24.78v23.04c0,3-1.44,4.5-4.32,4.5Zm58.62,0c-1.52,0-2.68-.42-3.48-1.26-.8-.84-1.2-2.02-1.2-3.54v-30.36h-10.62c-2.6,0-3.9-1.28-3.9-3.84s1.3-3.84,3.9-3.84h30.54c2.6,0,3.9,1.28,3.9,3.84s-1.3,3.84-3.9,3.84h-10.62v30.36c0,1.52-.39,2.7-1.17,3.54-.78,.84-1.93,1.26-3.45,1.26Zm31.02-.54c-3.24,0-4.86-1.62-4.86-4.86v-32.58c0-3.24,1.62-4.86,4.86-4.86h20.94c2.44,0,3.66,1.2,3.66,3.6s-1.22,3.66-3.66,3.66h-16.92v9.9h15.54c2.48,0,3.72,1.22,3.72,3.66s-1.24,3.66-3.72,3.66h-15.54v10.56h16.92c2.44,0,3.66,1.2,3.66,3.6s-1.22,3.66-3.66,3.66h-20.94Zm39.12,.54c-1.52,0-2.68-.42-3.48-1.26-.8-.84-1.2-2.02-1.2-3.54v-33.3c0-3.16,1.58-4.74,4.74-4.74h14.58c4.72,0,8.36,1.14,10.92,3.42,2.56,2.28,3.84,5.46,3.84,9.54,0,3.16-.81,5.79-2.43,7.89-1.62,2.1-3.93,3.53-6.93,4.29,2.12,.64,3.86,2.18,5.22,4.62l3.72,6.9c.84,1.52,1,2.93,.48,4.23-.52,1.3-1.78,1.95-3.78,1.95-1.32,0-2.4-.28-3.24-.84-.84-.56-1.56-1.42-2.16-2.58l-5.76-10.62c-.6-1.12-1.34-1.88-2.22-2.28-.88-.4-1.92-.6-3.12-.6h-4.56v12.12c0,1.52-.39,2.7-1.17,3.54-.78,.84-1.93,1.26-3.45,1.26Zm4.62-23.64h8.34c5,0,7.5-2,7.5-6s-2.5-5.94-7.5-5.94h-8.34v11.94Z"/><path id="d" class="j" d="M549.75,304.09c-10.76,0-16.14-5.55-16.14-16.65V140.64c0-10.93,5.46-16.39,16.4-16.39h60.79c19.5,0,34.56,4.88,45.15,14.63,10.59,9.75,15.89,23.38,15.89,40.86s-5.3,31.15-15.89,40.99c-10.59,9.84-25.65,14.76-45.15,14.76h-44.9v51.96c0,11.1-5.38,16.65-16.14,16.65Zm16.14-94.08h39.85c23.21,0,34.81-10.09,34.81-30.27s-11.6-30.02-34.81-30.02h-39.85v60.28Zm109.52,94.08c-5.89,0-10.09-2.02-12.61-6.05-2.52-4.04-2.44-8.91,.25-14.63l66.59-147.56c2.18-4.88,4.83-8.36,7.95-10.47,3.11-2.1,6.68-3.15,10.72-3.15s7.35,1.05,10.47,3.15c3.11,2.1,5.76,5.59,7.95,10.47l66.84,147.56c2.69,5.89,2.86,10.81,.5,14.76-2.36,3.95-6.39,5.93-12.11,5.93-4.71,0-8.37-1.13-10.97-3.41-2.61-2.27-4.92-5.76-6.94-10.47l-12.61-29.26h-86.77l-12.36,29.26c-2.19,4.88-4.46,8.41-6.81,10.59-2.36,2.18-5.72,3.28-10.09,3.28Zm72.39-144.78l-32.03,75.92h64.57l-32.03-75.92h-.5Zm129.9,142.76c-10.93,0-16.4-5.55-16.4-16.65V139.88c0-10.93,5.38-16.39,16.14-16.39s16.14,5.47,16.14,16.39v134.69h73.15c9.42,0,14.12,4.54,14.12,13.62s-4.71,13.87-14.12,13.87h-89.04Zm123.34,2.02c-5.89,0-10.09-2.02-12.61-6.05-2.52-4.04-2.44-8.91,.25-14.63l66.59-147.56c2.18-4.88,4.83-8.36,7.95-10.47,3.11-2.1,6.68-3.15,10.72-3.15s7.35,1.05,10.47,3.15c3.11,2.1,5.76,5.59,7.95,10.47l66.84,147.56c2.69,5.89,2.86,10.81,.5,14.76-2.36,3.95-6.39,5.93-12.11,5.93-4.71,0-8.37-1.13-10.97-3.41-2.61-2.27-4.92-5.76-6.94-10.47l-12.61-29.26h-86.77l-12.36,29.26c-2.19,4.88-4.46,8.41-6.81,10.59-2.36,2.18-5.72,3.28-10.09,3.28Zm72.39-144.78l-32.03,75.92h64.57l-32.03-75.92h-.5Z"/></g><g id="e"><path id="f" class="j" d="M217.53,86.59V12.69c0-7.01,5.68-12.69,12.69-12.69s12.69,5.68,12.69,12.69V86.59c0,7.01-5.68,12.69-12.69,12.69s-12.69-5.68-12.69-12.69ZM39.16,130.34l64,36.95c2,1.15,4.18,1.7,6.33,1.7,4.39,0,8.65-2.28,11.01-6.35,3.51-6.07,1.43-13.84-4.65-17.34l-64-36.95c-6.07-3.5-13.84-1.43-17.34,4.65s-1.43,13.84,4.65,17.34Zm386.78-17.34c-3.51-6.07-11.27-8.15-17.34-4.65l-64,36.95c-6.07,3.51-8.15,11.27-4.65,17.34,2.35,4.07,6.62,6.35,11.01,6.35,2.15,0,4.34-.55,6.33-1.7l64-36.95c6.07-3.51,8.15-11.27,4.65-17.34ZM120.49,289.35c-3.5-6.07-11.27-8.15-17.34-4.65l-64,36.95c-6.07,3.51-8.15,11.27-4.65,17.34,2.35,4.07,6.62,6.35,11.01,6.35,2.15,0,4.34-.55,6.33-1.7l64-36.95c6.07-3.51,8.15-11.27,4.65-17.34Zm300.8,32.3l-64-36.95c-6.07-3.5-13.84-1.42-17.34,4.65-3.51,6.07-1.43,13.84,4.65,17.34l64,36.95c2,1.15,4.18,1.7,6.33,1.7,4.39,0,8.66-2.28,11.01-6.35,3.51-6.07,1.43-13.84-4.65-17.34Z"/><path id="g" class="j" d="M282.38,458.3h-39.46v-23.23h29.04c7.01,0,12.69-5.68,12.69-12.69s-5.68-12.69-12.69-12.69h-29.04v-77.1c53.24-6.3,94.67-51.68,94.67-106.59,0-59.2-48.16-107.37-107.37-107.37s-107.36,48.16-107.36,107.37c0,54.9,41.43,100.28,94.67,106.59v167.07c0,7.01,5.68,12.69,12.69,12.69s12.69-5.68,12.69-12.69v-15.96h39.46c7.01,0,12.69-5.68,12.69-12.69s-5.68-12.69-12.69-12.69ZM148.25,225.99c0-45.2,36.77-81.98,81.97-81.98s81.98,36.77,81.98,81.98-36.77,81.97-81.98,81.97-81.97-36.77-81.97-81.97Z"/><path id="h" class="j" d="M282.27,271.61c0-4.21-3.41-7.62-7.62-7.62h-38.09v-15.12h7.65c20.98,0,38.06-17.07,38.06-38.06s-17.07-38.06-38.06-38.06h-30.52c-20.98,0-38.06,17.07-38.06,38.06s17.07,38.06,38.06,38.06h7.64v22.74c0,4.21,3.41,7.62,7.62,7.62h45.7c4.21,0,7.62-3.41,7.62-7.62Zm-15.23-60.79c0,12.58-10.24,22.82-22.82,22.82h-7.65v-45.65h7.65c12.58,0,22.82,10.24,22.82,22.82Zm-53.35,22.82c-12.58,0-22.82-10.24-22.82-22.82s10.24-22.82,22.82-22.82h7.64v45.65h-7.64Z"/><path id="i" class="k" d="M142.06,81.66c-2.99,0-5.78-1.61-7.28-4.2l-22.74-39.39c-1.12-1.94-1.42-4.2-.84-6.37,.58-2.17,1.97-3.97,3.91-5.1,1.28-.74,2.72-1.13,4.18-1.13,2.99,0,5.78,1.61,7.28,4.2l22.74,39.39c1.12,1.94,1.42,4.2,.84,6.37s-1.97,3.97-3.91,5.1c-1.28,.74-2.72,1.13-4.18,1.13ZM53.88,234.39c4.63,0,8.39-3.76,8.39-8.39s-3.76-8.39-8.39-8.39H8.39C3.76,217.6,0,221.37,0,225.99s3.76,8.39,8.39,8.39H53.88Zm72.7,187.92l22.74-39.39c1.12-1.94,1.42-4.2,.84-6.37s-1.97-3.97-3.91-5.1c-1.28-.74-2.72-1.13-4.18-1.13-3,0-5.78,1.61-7.28,4.2l-22.74,39.39c-1.12,1.94-1.42,4.2-.84,6.37s1.97,3.97,3.91,5.1c1.28,.74,2.72,1.13,4.18,1.13,3,0,5.78-1.61,7.28-4.2Zm218.76,3.07c1.94-1.12,3.33-2.93,3.91-5.1s.28-4.43-.84-6.37l-22.74-39.39c-1.49-2.59-4.28-4.2-7.28-4.2-1.46,0-2.91,.39-4.19,1.13-1.94,1.12-3.33,2.93-3.91,5.1s-.28,4.43,.84,6.37l22.74,39.39c1.5,2.59,4.28,4.2,7.28,4.2,1.46,0,2.91-.39,4.18-1.13Zm106.72-190.99c4.63,0,8.39-3.76,8.39-8.39s-3.76-8.39-8.39-8.39h-45.49c-4.63,0-8.39,3.76-8.39,8.39s3.76,8.39,8.39,8.39h45.49Zm-126.39-156.92l22.74-39.39c1.12-1.94,1.42-4.2,.84-6.37-.58-2.17-1.97-3.97-3.91-5.1-1.28-.74-2.72-1.13-4.18-1.13-2.99,0-5.78,1.61-7.28,4.2l-22.74,39.39c-2.31,4.01-.94,9.15,3.07,11.46,1.28,.74,2.72,1.13,4.18,1.13,3,0,5.78-1.61,7.28-4.2Z"/></g></g></svg>